<svg width="42" height="30" viewBox="0 0 42 30" fill="none" xmlns="http://www.w3.org/2000/svg">
<path d="M24.1042 3.60712C27.953 6.52214 27.5826 12.131 23.3263 14.2457C21.3573 15.2286 18.5694 13.8565 15.9632 17.079C13.6124 19.9845 16.3899 23.8013 11.1394 26.2169C6.23732 28.4689 0.867498 23.069 3.08903 18.1666C5.09495 13.7263 8.84976 15.0713 11.0018 14.1056C17.0108 11.4093 12.3172 5.87229 18.0434 3.08891C19.7174 2.27776 22.56 2.43954 24.1042 3.60712Z" fill="#EAEAEA"/>
<path d="M38.3929 24.0687C35.4779 27.9175 29.869 27.5471 27.7543 23.2908C26.7714 21.3218 28.1435 18.5339 24.921 15.9277C22.0155 13.5769 18.1987 16.3544 15.7831 11.1039C13.5311 6.20182 18.931 0.832006 23.8334 3.05354C28.2737 5.05945 26.9287 8.81427 27.8944 10.9663C30.5907 16.9753 36.1277 12.2817 38.9111 18.0079C39.7222 19.6819 39.5605 22.5246 38.3929 24.0687Z" fill="#EAEAEA"/>
</svg>
